<svg xmlns="http://www.w3.org/2000/svg" width="225" height="225" viewBox="0 0 225 225" version="1.1"><path d="M 0.126 52.750 C 0.212 88.274, 0.541 103.258, 1.135 98.635 C 5.508 64.583, 25.419 33.908, 54.582 16.294 C 66.919 8.844, 83.775 3.043, 98.635 1.135 C 103.258 0.541, 88.274 0.212, 52.750 0.126 L 0 0 0.126 52.750 M 126.365 1.135 C 145.203 3.554, 164.790 11.374, 179.500 22.348 C 185.596 26.896, 196.677 37.853, 201.396 44 C 212.702 58.725, 219.702 74.850, 223.538 95 C 224.596 100.556, 224.792 94.131, 224.888 50.750 L 225 0 172.250 0.126 C 136.726 0.212, 121.742 0.541, 126.365 1.135 M 40 71.500 L 40 89 44.500 89 L 49 89 49 130.500 L 49 172 97.728 172 L 146.456 172 153.998 179.498 L 161.541 186.997 171.520 176.958 C 181.292 167.128, 181.458 166.884, 179.500 165.210 C 177.557 163.549, 177.508 162.439, 177.774 126.250 L 178.048 89 182.524 89 L 187 89 187 71.500 L 187 54 113.500 54 L 40 54 40 71.500 M 91.545 66.496 C 74.910 72.365, 63.504 85.221, 59.387 102.741 C 53.948 125.890, 68.221 150.991, 91.349 158.948 C 107.171 164.391, 122.718 161.756, 137.583 151.112 C 144.626 146.069, 148.972 140.404, 152.626 131.500 C 155.243 125.127, 155.500 123.425, 155.500 112.500 C 155.500 100.579, 155.474 100.447, 151.592 92.500 C 140.328 69.439, 114.681 58.333, 91.545 66.496 M 97.994 79.934 C 88.714 82.757, 80.980 89.263, 76.800 97.761 C 73.848 103.763, 73.501 105.369, 73.505 112.985 C 73.512 123.275, 76.220 130.031, 83.094 136.906 C 89.965 143.776, 96.726 146.488, 107 146.495 C 117.301 146.501, 124.417 143.648, 131.058 136.849 C 137.683 130.066, 140.479 123.138, 140.481 113.500 C 140.481 109.100, 139.921 103.643, 139.236 101.374 C 136.717 93.036, 126.785 83.523, 117.101 80.175 C 113.356 78.880, 101.931 78.737, 97.994 79.934 M 0.126 172.250 L 0 225 51.250 224.892 C 96.282 224.797, 101.651 224.627, 95.500 223.492 C 74.718 219.659, 59.006 212.917, 44 201.396 C 37.853 196.677, 26.896 185.596, 22.348 179.500 C 11.374 164.790, 3.554 145.203, 1.135 126.365 C 0.541 121.742, 0.212 136.726, 0.126 172.250 M 223.569 129.250 C 220.187 155.032, 205.542 181.094, 184.625 198.554 C 168.285 212.193, 151.577 219.732, 128.500 223.878 C 125.211 224.469, 140.865 224.815, 174.250 224.888 L 225 225 225 174.500 C 225 146.725, 224.833 124, 224.629 124 C 224.425 124, 223.948 126.362, 223.569 129.250" stroke="none" fill="#f4d89b" fill-rule="evenodd"/><path d="M 98.635 1.065 C 71.783 4.785, 49.536 16.151, 30.998 35.621 C 16.288 51.071, 7.210 68.507, 2.426 90.500 C 0.054 101.404, 0.054 123.596, 2.426 134.500 C 5.687 149.489, 11.281 162.944, 19.474 175.500 C 24.516 183.228, 41.772 200.484, 49.500 205.526 C 92.548 233.614, 145.921 230.860, 184.625 198.554 C 202.357 183.752, 216.438 161.475, 221.320 140.500 C 226.181 119.609, 226.757 110.791, 224.129 97.500 C 218.306 68.052, 208.414 49.121, 189.379 30.998 C 173.891 16.252, 155.956 6.930, 134.652 2.554 C 124.798 0.530, 107.624 -0.180, 98.635 1.065 M 40 71.500 L 40 89 44.500 89 L 49 89 49 130.500 L 49 172 97.728 172 L 146.456 172 153.998 179.498 L 161.541 186.997 171.520 176.958 C 181.292 167.128, 181.458 166.884, 179.500 165.210 C 177.557 163.549, 177.508 162.439, 177.774 126.250 L 178.048 89 182.524 89 L 187 89 187 71.500 L 187 54 113.500 54 L 40 54 40 71.500 M 91.545 66.496 C 74.910 72.365, 63.504 85.221, 59.387 102.741 C 53.948 125.890, 68.221 150.991, 91.349 158.948 C 107.171 164.391, 122.718 161.756, 137.583 151.112 C 144.626 146.069, 148.972 140.404, 152.626 131.500 C 155.243 125.127, 155.500 123.425, 155.500 112.500 C 155.500 100.579, 155.474 100.447, 151.592 92.500 C 140.328 69.439, 114.681 58.333, 91.545 66.496 M 97.994 79.934 C 88.714 82.757, 80.980 89.263, 76.800 97.761 C 73.848 103.763, 73.501 105.369, 73.505 112.985 C 73.512 123.275, 76.220 130.031, 83.094 136.906 C 89.965 143.776, 96.726 146.488, 107 146.495 C 117.301 146.501, 124.417 143.648, 131.058 136.849 C 137.683 130.066, 140.479 123.138, 140.481 113.500 C 140.481 109.100, 139.921 103.643, 139.236 101.374 C 136.717 93.036, 126.785 83.523, 117.101 80.175 C 113.356 78.880, 101.931 78.737, 97.994 79.934 M 0.343 112.500 C 0.346 116.900, 0.522 118.576, 0.733 116.224 C 0.945 113.872, 0.942 110.272, 0.727 108.224 C 0.512 106.176, 0.339 108.100, 0.343 112.500" stroke="none" fill="#3f76ef" fill-rule="evenodd"/></svg>