<svg xmlns="http://www.w3.org/2000/svg" width="288" height="175" viewBox="0 0 288 175" version="1.1"><path d="M 0 41.441 C 0 66.530, 0.375 83.114, 0.950 83.469 C 1.472 83.792, 2.388 83.143, 2.985 82.028 C 3.859 80.395, 3.768 80, 2.516 80 C 1.431 80, 1.105 79.321, 1.435 77.750 C 3.158 69.550, 3.954 64.847, 3.744 64.113 C 3.610 63.646, 4.602 62.363, 5.950 61.261 L 8.400 59.258 5.288 57.649 C 3.133 56.535, 2.320 55.494, 2.641 54.263 C 2.897 53.286, 3.195 50.512, 3.303 48.099 C 3.446 44.922, 4.040 43.407, 5.458 42.606 C 9.092 40.552, 9.667 39.490, 10.368 33.529 C 10.752 30.259, 11.796 26.778, 12.688 25.792 C 14.193 24.129, 14.173 23.993, 12.405 23.910 C 11.209 23.853, 11.617 23.490, 13.500 22.935 C 17.334 21.805, 21.484 16.573, 22.393 11.722 C 22.782 9.644, 23.528 8.208, 24.051 8.531 C 24.573 8.854, 25 8.401, 25 7.524 C 25 6.287, 25.412 6.150, 26.835 6.911 C 28.218 7.652, 28.556 8.705, 28.208 11.197 L 27.746 14.500 29.873 11.842 C 31.043 10.381, 32.036 7.906, 32.079 6.342 C 32.122 4.779, 32.386 4.065, 32.664 4.756 C 32.943 5.447, 33.695 5.684, 34.335 5.282 C 36.492 3.928, 40.307 3.879, 41.142 5.195 C 41.775 6.194, 41.973 6.207, 41.985 5.250 C 41.993 4.563, 43.077 4, 44.393 4 C 45.709 4, 47.045 3.325, 47.362 2.500 C 47.701 1.614, 49.203 1, 51.028 1 C 53.133 1, 53.887 1.373, 53.395 2.170 C 52.909 2.957, 53.217 3.131, 54.336 2.701 C 55.251 2.350, 56 2.499, 56 3.031 C 56 3.564, 56.477 4, 57.059 4 C 57.641 4, 57.870 3.598, 57.566 3.107 C 57.262 2.615, 58.023 1.995, 59.257 1.728 C 63.079 0.902, 77.832 1.840, 80.099 3.053 C 81.700 3.910, 82.794 3.916, 84.375 3.079 C 85.544 2.460, 92.125 1.579, 99 1.120 C 108.027 0.519, 96.009 0.247, 55.750 0.144 L 0 0 0 41.441 M 221 0.938 C 221 1.454, 221.787 1.923, 222.750 1.980 C 226.980 2.234, 230.647 2.187, 232.500 1.857 C 233.909 1.605, 234.459 2.017, 234.361 3.250 C 234.183 5.498, 237.563 5.580, 239.763 3.380 C 241.022 2.121, 242.598 1.885, 246.834 2.322 C 249.832 2.632, 252.761 3.361, 253.342 3.942 C 253.924 4.524, 256.303 5, 258.629 5 C 260.954 5, 263.452 5.582, 264.179 6.292 C 266.280 8.347, 271.805 10.284, 273.958 9.721 C 277.203 8.873, 280.063 12.232, 280.358 17.237 C 280.608 21.477, 283.015 26.108, 286.453 28.961 C 287.837 30.110, 288 28.654, 288 15.122 L 288 0 254.500 0 C 234.313 0, 221 0.373, 221 0.938 M 24.500 2 C 24.840 2.550, 25.766 3, 26.559 3 C 27.352 3, 28 2.550, 28 2 C 28 1.450, 27.073 1, 25.941 1 C 24.809 1, 24.160 1.450, 24.500 2 M 30 2 C 30 3.305, 38.694 3.305, 39.500 2 C 39.881 1.384, 38.177 1, 35.059 1 C 32.277 1, 30 1.450, 30 2 M 147.150 11.750 C 147.067 12.988, 146.128 14.872, 145.063 15.937 C 143.394 17.606, 142.703 17.714, 140.063 16.718 C 137.798 15.863, 136.235 15.850, 134.064 16.670 C 130.555 17.994, 127.392 16.306, 126.705 12.741 C 126.373 11.021, 126.249 11.197, 126.172 13.500 C 126.116 15.150, 126.636 17.517, 127.326 18.760 C 128.269 20.458, 128.331 22.385, 127.576 26.510 C 126.642 31.608, 126.371 32, 123.785 32 C 122.253 32, 121 32.235, 121 32.521 C 121 32.808, 122.191 34.842, 123.646 37.042 C 125.102 39.241, 126.104 41.230, 125.873 41.461 C 125.642 41.691, 122.521 43.196, 118.938 44.804 C 111.588 48.101, 109.827 50.642, 105.977 63.500 C 103.316 72.386, 99.072 78.699, 92.824 83.063 C 84.655 88.769, 71.995 100.295, 72.079 101.949 C 72.131 102.979, 72.327 103.080, 72.662 102.250 C 73.542 100.071, 74.724 100.892, 75.540 104.250 L 76.331 107.500 77.015 103 C 77.567 99.371, 77.729 99.103, 77.850 101.615 C 77.932 103.328, 78.951 105.940, 80.114 107.418 C 82.633 110.620, 83.903 110.128, 81.602 106.842 C 80.721 105.584, 80 103.739, 80 102.742 C 80 101.240, 80.342 101.113, 82 102 C 83.356 102.726, 84 102.737, 84 102.035 C 84 101.466, 83.550 101, 83 101 C 81.525 101, 81.785 98.424, 83.394 97.088 C 84.470 96.195, 85.154 96.297, 86.394 97.537 C 87.277 98.420, 88 99.580, 88 100.113 C 88 100.647, 88.857 102.004, 89.905 103.128 C 92.083 105.467, 93.903 104.891, 97.924 100.592 C 100.389 97.957, 102 97.283, 102 98.888 C 102 99.376, 96.772 103.313, 90.381 107.638 C 83.991 111.962, 77.916 116.573, 76.881 117.885 C 73.014 122.787, 75.309 130.250, 81.072 131.516 C 83.346 132.015, 83.982 132.604, 83.528 133.789 C 83.050 135.033, 83.387 134.959, 85.050 133.455 C 86.224 132.392, 87.589 130.767, 88.083 129.844 C 88.884 128.349, 88.603 128.271, 85.505 129.126 C 79.436 130.802, 75.247 126.144, 77.795 120.552 C 78.645 118.684, 99.851 103, 101.525 103 C 101.786 103, 102 111.100, 102 121 L 102 139 122.617 139 C 142.738 139, 143.221 139.048, 142.711 140.999 C 142.423 142.098, 142.596 143.250, 143.094 143.558 C 145.475 145.030, 143.476 146.034, 138.488 145.871 C 132.465 145.674, 132.132 145.187, 137.199 143.986 C 139.015 143.556, 110.350 143.130, 73.500 143.039 C 36.650 142.947, 5.038 142.728, 3.250 142.552 L 0 142.233 0 158.620 L 0 175.007 144.250 174.753 L 288.500 174.500 288.684 157.500 C 288.786 148.150, 288.636 141.063, 288.351 141.750 C 287.946 142.728, 274.654 143.030, 227.167 143.136 C 193.800 143.211, 167.512 143.467, 168.750 143.706 C 172.440 144.416, 171.301 146, 167.099 146 C 163.293 146, 163.200 145.916, 163.297 142.519 L 163.395 139.039 184.448 138.769 L 205.500 138.500 205.500 107 L 205.500 75.500 191.655 75 L 177.809 74.500 176.568 70.882 C 175.885 68.893, 174.331 65.653, 173.113 63.683 L 170.900 60.102 184.200 51.194 C 191.515 46.295, 198.895 40.979, 200.601 39.381 C 206.635 33.729, 205.806 22.020, 199.128 18.566 C 194.008 15.919, 189.932 16.928, 182.293 22.734 C 180.529 24.075, 178.648 24.901, 178.112 24.569 C 177.577 24.238, 176.853 24.429, 176.505 24.992 C 176.156 25.556, 172.686 28.759, 168.793 32.109 C 164.900 35.460, 162.341 38.030, 163.107 37.821 C 172.596 35.228, 179.927 32.308, 179.541 31.276 C 178.791 29.273, 189.820 22, 193.606 22 C 199.360 22, 201.817 28.586, 198.475 35.049 C 197.496 36.941, 192.210 41.159, 183.725 46.817 C 167.963 57.327, 167.888 57.373, 168.181 56.324 C 168.523 55.099, 165.474 49.737, 163.352 47.834 C 162.334 46.920, 158.463 44.961, 154.750 43.480 C 151.037 41.999, 148.002 40.498, 148.004 40.144 C 148.006 39.790, 148.906 38.027, 150.004 36.226 C 152.669 31.854, 152.523 30.869, 149.256 31.212 C 146.688 31.482, 146.531 31.277, 146.800 28 C 147.017 25.353, 146.836 24.865, 146.059 26 C 144.330 28.522, 144.769 21.771, 146.568 18.165 C 147.430 16.437, 147.947 13.780, 147.717 12.261 C 147.382 10.047, 147.270 9.946, 147.150 11.750 M 135.955 41.354 C 136.426 41.825, 137.616 41.755, 138.614 41.196 C 140.167 40.327, 140.048 40.207, 137.761 40.343 C 136.293 40.430, 135.484 40.882, 135.955 41.354 M 198.731 56.420 C 197.722 68.124, 195.090 71.624, 193.534 63.330 C 193.024 60.609, 192.605 60.015, 191.944 61.069 C 190.157 63.916, 193.885 70.365, 196.695 69.287 C 197.524 68.969, 198.582 69.324, 199.047 70.076 C 199.734 71.188, 200.012 71.133, 200.530 69.782 C 201.058 68.406, 201.592 68.312, 203.621 69.237 C 207.263 70.897, 209.616 67.880, 209.115 62.191 C 208.915 59.916, 207 62.007, 207 64.500 C 207 67.239, 205.838 68.259, 203.668 67.426 C 201.364 66.542, 200.664 64.230, 200.057 55.500 L 199.500 47.500 198.731 56.420 M 286 52.500 C 286 53.325, 286.450 54, 287 54 C 287.550 54, 288 53.325, 288 52.500 C 288 51.675, 287.550 51, 287 51 C 286.450 51, 286 51.675, 286 52.500 M 148 91 C 146.900 92.100, 146 93.646, 146 94.437 C 146 95.327, 144.763 95.993, 142.750 96.187 L 139.500 96.500 139.500 106.500 L 139.500 116.500 152.361 116.781 C 160.989 116.969, 165.678 116.682, 166.611 115.908 C 167.569 115.113, 168 112.445, 168 107.312 C 168 99.324, 166.909 96, 164.286 96 C 163.382 96, 161.199 94.425, 159.436 92.500 C 157.673 90.575, 155.616 89.014, 154.865 89.030 C 154.059 89.048, 154.319 89.530, 155.500 90.208 C 159.334 92.407, 161.195 96, 158.500 96 C 157.675 96, 157 95.334, 157 94.519 C 157 92.779, 152.270 91.330, 150.938 92.662 C 150.385 93.215, 151.066 93.562, 152.664 93.539 C 154.116 93.517, 155.489 94.034, 155.715 94.687 C 155.997 95.503, 154.698 95.828, 151.562 95.726 C 148.917 95.639, 147 95.101, 147 94.443 C 147 93.152, 149.769 90.530, 152 89.709 C 153.187 89.273, 153.135 89.141, 151.750 89.079 C 150.787 89.036, 149.100 89.900, 148 91 M 116.356 91.233 C 116.050 91.728, 116.070 92.403, 116.400 92.733 C 116.730 93.063, 117 92.822, 117 92.198 C 117 91.574, 117.675 91.322, 118.500 91.638 C 119.325 91.955, 120 91.791, 120 91.274 C 120 90.074, 117.092 90.042, 116.356 91.233 M 183.755 91.846 C 181.695 92.756, 180.008 93.816, 180.005 94.202 C 179.997 95.333, 188.684 100.982, 189.373 100.294 C 189.718 99.949, 190 97.492, 190 94.833 C 190 89.453, 189.603 89.263, 183.755 91.846 M 184.500 93.114 L 181.500 95.081 184.250 94.432 C 186.494 93.903, 187.003 94.125, 187.015 95.642 C 187.028 97.207, 187.183 97.264, 188 96 C 189.151 94.219, 189.316 90.969, 188.250 91.073 C 187.838 91.113, 186.150 92.032, 184.500 93.114 M 0.079 97.583 C 0.127 98.748, 0.364 98.985, 0.683 98.188 C 0.972 97.466, 0.936 96.603, 0.604 96.271 C 0.272 95.939, 0.036 96.529, 0.079 97.583 M 146 101.047 C 148.475 103.226, 151.273 105.258, 152.217 105.561 C 153.290 105.907, 156.011 104.546, 159.467 101.937 C 162.510 99.639, 165 97.589, 165 97.380 C 165 97.171, 159.713 97.019, 153.250 97.043 L 141.500 97.085 146 101.047 M 140 107.141 L 140 115.283 144.857 110.891 L 149.713 106.500 145.607 102.780 C 143.348 100.734, 141.162 99.046, 140.750 99.030 C 140.338 99.013, 140 102.664, 140 107.141 M 161.388 102.087 C 159.249 103.784, 157.306 105.366, 157.068 105.602 C 156.545 106.121, 162.899 112.836, 165 113.983 C 166.276 114.680, 166.500 113.622, 166.500 106.901 C 166.500 102.556, 166.224 99, 165.888 99 C 165.551 99, 163.526 100.389, 161.388 102.087 M 145.881 111.621 L 141.584 116 153.433 116 L 165.282 116 160.464 111.759 C 153.971 106.044, 151.379 106.020, 145.881 111.621 M 0.085 125.001 C 0.025 140.876, 0.041 140.992, 2.074 139.751 C 3.201 139.063, 4.377 137.262, 4.686 135.750 C 4.996 134.238, 5.644 133, 6.125 133 C 6.606 133, 7 131.425, 7 129.500 C 7 127.575, 6.598 126, 6.107 126 C 4.325 126, 3.881 122.560, 5.508 121.370 C 8.545 119.150, 4.939 109, 1.114 109 C 0.531 109, 0.121 115.378, 0.085 125.001 M 192.500 114 C 192.160 114.550, 192.160 115.450, 192.500 116 C 193.331 117.344, 196.713 117.273, 197.566 115.893 C 198.022 115.155, 197.570 115.002, 196.209 115.434 C 195.087 115.790, 193.882 115.618, 193.532 115.052 C 193.163 114.455, 193.506 114.257, 194.347 114.580 C 195.145 114.886, 196.095 114.656, 196.458 114.068 C 196.842 113.447, 196.282 113, 195.118 113 C 194.018 113, 192.840 113.450, 192.500 114 M 109.268 116.025 C 107.444 116.758, 107.194 117.341, 107.898 119.211 C 108.603 121.082, 109.375 121.440, 112.130 121.169 C 116.468 120.742, 117.456 119.720, 116.057 117.107 C 114.861 114.872, 112.908 114.560, 109.268 116.025 M 113.446 117.087 C 113.077 117.685, 111.924 117.952, 110.886 117.680 C 109.847 117.409, 109.217 117.543, 109.486 117.978 C 109.755 118.413, 111.320 118.967, 112.964 119.208 C 115.157 119.530, 115.695 119.337, 114.984 118.481 C 114.453 117.840, 114.313 117.020, 114.675 116.658 C 115.037 116.296, 115.060 116, 114.726 116 C 114.391 116, 113.816 116.489, 113.446 117.087 M 0.409 158.500 C 0.408 167.850, 0.558 171.810, 0.743 167.299 C 0.928 162.789, 0.929 155.139, 0.745 150.299 C 0.562 145.460, 0.410 149.150, 0.409 158.500 M 114.093 150.827 C 113.492 151.950, 113.036 153.686, 113.079 154.684 C 113.139 156.073, 113.284 156.147, 113.694 155 C 113.989 154.175, 114.942 152.936, 115.811 152.246 C 116.964 151.332, 117.094 150.694, 116.289 149.889 C 115.484 149.084, 114.889 149.338, 114.093 150.827 M 119.250 149.650 C 116.290 150.873, 118.494 151.488, 125.250 151.322 C 129.237 151.224, 134.188 151.112, 136.250 151.072 C 138.313 151.032, 139.996 150.662, 139.990 150.250 C 139.979 149.400, 121.172 148.856, 119.250 149.650 M 180.269 149.693 C 181.242 149.947, 182.592 149.930, 183.269 149.656 C 183.946 149.382, 183.150 149.175, 181.500 149.195 C 179.850 149.215, 179.296 149.439, 180.269 149.693 M 185.798 150.684 C 185.539 151.683, 186.129 153.340, 187.108 154.366 C 188.836 156.177, 188.880 156.154, 188.605 153.577 C 188.233 150.085, 186.433 148.230, 185.798 150.684 M 197.690 150.238 C 196.188 151.336, 196.590 151.467, 200.492 151.157 C 203.174 150.944, 205.664 151.306, 206.547 152.039 C 207.791 153.071, 207.939 153.004, 207.416 151.641 C 207.069 150.739, 205.746 150, 204.475 150 C 203.204 150, 201.551 149.765, 200.803 149.478 C 200.055 149.191, 198.654 149.533, 197.690 150.238" stroke="none" fill="#0f6172" fill-rule="evenodd"/><path d="M 99 1.120 C 92.125 1.579, 85.544 2.460, 84.375 3.079 C 82.794 3.916, 81.700 3.910, 80.099 3.053 C 77.832 1.840, 63.079 0.902, 59.257 1.728 C 58.023 1.995, 57.262 2.615, 57.566 3.107 C 57.870 3.598, 57.641 4, 57.059 4 C 56.477 4, 56 3.564, 56 3.031 C 56 2.499, 55.251 2.350, 54.336 2.701 C 53.217 3.131, 52.909 2.957, 53.395 2.170 C 53.887 1.373, 53.133 1, 51.028 1 C 49.203 1, 47.701 1.614, 47.362 2.500 C 47.045 3.325, 45.709 4, 44.393 4 C 43.077 4, 41.993 4.563, 41.985 5.250 C 41.973 6.207, 41.775 6.194, 41.142 5.195 C 40.307 3.879, 36.492 3.928, 34.335 5.282 C 33.695 5.684, 32.943 5.447, 32.664 4.756 C 32.386 4.065, 32.122 4.779, 32.079 6.342 C 32.036 7.906, 31.043 10.381, 29.873 11.842 L 27.746 14.500 28.208 11.197 C 28.556 8.705, 28.218 7.652, 26.835 6.911 C 25.412 6.150, 25 6.287, 25 7.524 C 25 8.401, 24.573 8.854, 24.051 8.531 C 23.528 8.208, 22.782 9.644, 22.393 11.722 C 21.484 16.573, 17.334 21.805, 13.500 22.935 C 11.617 23.490, 11.209 23.853, 12.405 23.910 C 14.173 23.993, 14.193 24.129, 12.688 25.792 C 11.796 26.778, 10.752 30.259, 10.368 33.529 C 9.667 39.490, 9.092 40.552, 5.458 42.606 C 4.040 43.407, 3.446 44.922, 3.303 48.099 C 3.195 50.512, 2.897 53.286, 2.641 54.263 C 2.320 55.494, 3.133 56.535, 5.288 57.649 L 8.400 59.258 5.950 61.261 C 4.602 62.363, 3.610 63.646, 3.744 64.113 C 3.954 64.847, 3.158 69.550, 1.435 77.750 C 1.105 79.321, 1.431 80, 2.516 80 C 3.768 80, 3.859 80.395, 2.985 82.028 C 2.388 83.143, 1.493 83.805, 0.996 83.498 C 0.476 83.176, 0.112 88.456, 0.137 95.970 C 0.163 103.511, 0.582 109, 1.133 109 C 4.942 109, 8.535 119.157, 5.508 121.370 C 3.881 122.560, 4.325 126, 6.107 126 C 6.598 126, 7 127.575, 7 129.500 C 7 131.425, 6.550 133, 6 133 C 5.450 133, 5 133.882, 5 134.960 C 5 136.037, 3.819 138.014, 2.376 139.353 C -0.149 141.693, -0.172 141.811, 1.772 142.428 C 2.883 142.780, 4.177 143, 4.646 142.916 C 8.029 142.310, 139.786 143.374, 137.199 143.986 C 132.132 145.187, 132.465 145.674, 138.488 145.871 C 143.476 146.034, 145.475 145.030, 143.094 143.558 C 142.596 143.250, 142.423 142.098, 142.711 140.999 C 143.221 139.048, 142.738 139, 122.617 139 L 102 139 102 121 C 102 111.100, 101.786 103, 101.525 103 C 99.851 103, 78.645 118.684, 77.795 120.552 C 75.247 126.144, 79.436 130.802, 85.505 129.126 C 88.603 128.271, 88.884 128.349, 88.083 129.844 C 87.589 130.767, 86.224 132.392, 85.050 133.455 C 83.387 134.959, 83.050 135.033, 83.528 133.789 C 83.982 132.604, 83.346 132.015, 81.072 131.516 C 75.309 130.250, 73.014 122.787, 76.881 117.885 C 77.916 116.573, 83.991 111.962, 90.381 107.638 C 96.772 103.313, 102 99.376, 102 98.888 C 102 97.283, 100.389 97.957, 97.924 100.592 C 93.903 104.891, 92.083 105.467, 89.905 103.128 C 88.857 102.004, 88 100.647, 88 100.113 C 88 99.580, 87.277 98.420, 86.394 97.537 C 85.154 96.297, 84.470 96.195, 83.394 97.088 C 81.785 98.424, 81.525 101, 83 101 C 83.550 101, 84 101.466, 84 102.035 C 84 102.737, 83.356 102.726, 82 102 C 80.342 101.113, 80 101.240, 80 102.742 C 80 103.739, 80.721 105.584, 81.602 106.842 C 83.903 110.128, 82.633 110.620, 80.114 107.418 C 78.951 105.940, 77.932 103.328, 77.850 101.615 C 77.729 99.103, 77.567 99.371, 77.015 103 L 76.331 107.500 75.540 104.250 C 74.724 100.892, 73.542 100.071, 72.662 102.250 C 72.327 103.080, 72.131 102.979, 72.079 101.949 C 71.995 100.295, 84.655 88.769, 92.824 83.063 C 99.072 78.699, 103.316 72.386, 105.977 63.500 C 109.827 50.642, 111.588 48.101, 118.938 44.804 C 122.521 43.196, 125.642 41.691, 125.873 41.461 C 126.104 41.230, 125.102 39.241, 123.646 37.042 C 122.191 34.842, 121 32.808, 121 32.521 C 121 32.235, 122.253 32, 123.785 32 C 126.371 32, 126.642 31.608, 127.576 26.510 C 128.331 22.385, 128.269 20.458, 127.326 18.760 C 126.636 17.517, 126.116 15.150, 126.172 13.500 C 126.249 11.197, 126.373 11.021, 126.705 12.741 C 127.392 16.306, 130.555 17.994, 134.064 16.670 C 136.215 15.858, 137.789 15.859, 139.952 16.676 C 143.586 18.047, 145.647 16.814, 146.934 12.499 L 147.828 9.500 147.908 12.500 C 147.952 14.150, 147.315 16.789, 146.494 18.364 C 144.750 21.707, 144.365 28.472, 146.059 26 C 146.836 24.865, 147.017 25.353, 146.800 28 C 146.531 31.277, 146.688 31.482, 149.256 31.212 C 152.523 30.869, 152.669 31.854, 150.004 36.226 C 148.906 38.027, 148.006 39.790, 148.004 40.144 C 148.002 40.498, 151.037 41.999, 154.750 43.480 C 158.463 44.961, 162.334 46.920, 163.352 47.834 C 165.474 49.737, 168.523 55.099, 168.181 56.324 C 167.888 57.373, 167.963 57.327, 183.725 46.817 C 192.210 41.159, 197.496 36.941, 198.475 35.049 C 201.817 28.586, 199.360 22, 193.606 22 C 189.820 22, 178.791 29.273, 179.541 31.276 C 179.927 32.308, 172.596 35.228, 163.107 37.821 C 162.341 38.030, 164.900 35.460, 168.793 32.109 C 172.686 28.759, 176.156 25.556, 176.505 24.992 C 176.853 24.429, 177.577 24.238, 178.112 24.569 C 178.648 24.901, 180.529 24.075, 182.293 22.734 C 189.932 16.928, 194.008 15.919, 199.128 18.566 C 205.806 22.020, 206.635 33.729, 200.601 39.381 C 198.895 40.979, 191.515 46.295, 184.200 51.194 L 170.900 60.102 173.113 63.683 C 174.331 65.653, 175.885 68.893, 176.568 70.882 L 177.809 74.500 191.655 75 L 205.500 75.500 205.500 107 L 205.500 138.500 184.448 138.769 L 163.395 139.039 163.297 142.519 C 163.200 145.916, 163.293 146, 167.099 146 C 171.301 146, 172.440 144.416, 168.750 143.706 C 167.512 143.467, 193.837 143.211, 227.250 143.136 C 269.691 143.041, 288 142.677, 288 141.929 C 288 141.340, 288.067 127.277, 288.149 110.679 C 288.388 62.239, 288.230 54, 287.061 54 C 286.477 54, 286 53.325, 286 52.500 C 286 51.675, 286.450 51, 287 51 C 287.602 51, 288 46.874, 288 40.622 C 288 32.479, 287.667 29.969, 286.453 28.961 C 283.015 26.108, 280.608 21.477, 280.358 17.237 C 280.063 12.232, 277.203 8.873, 273.958 9.721 C 271.805 10.284, 266.280 8.347, 264.179 6.292 C 263.452 5.582, 260.954 5, 258.629 5 C 256.303 5, 253.924 4.524, 253.342 3.942 C 252.761 3.361, 249.832 2.632, 246.834 2.322 C 242.598 1.885, 241.022 2.121, 239.763 3.380 C 237.563 5.580, 234.183 5.498, 234.361 3.250 C 234.459 2.017, 233.909 1.605, 232.500 1.857 C 230.647 2.187, 226.980 2.234, 222.750 1.980 C 221.787 1.923, 221 1.454, 221 0.938 C 221 -0.223, 116.822 -0.067, 99 1.120 M 24.500 2 C 24.840 2.550, 25.766 3, 26.559 3 C 27.352 3, 28 2.550, 28 2 C 28 1.450, 27.073 1, 25.941 1 C 24.809 1, 24.160 1.450, 24.500 2 M 30 2 C 30 3.305, 38.694 3.305, 39.500 2 C 39.881 1.384, 38.177 1, 35.059 1 C 32.277 1, 30 1.450, 30 2 M 135.955 41.354 C 136.426 41.825, 137.616 41.755, 138.614 41.196 C 140.167 40.327, 140.048 40.207, 137.761 40.343 C 136.293 40.430, 135.484 40.882, 135.955 41.354 M 198.731 56.420 C 197.722 68.124, 195.090 71.624, 193.534 63.330 C 193.024 60.609, 192.605 60.015, 191.944 61.069 C 190.157 63.916, 193.885 70.365, 196.695 69.287 C 197.524 68.969, 198.582 69.324, 199.047 70.076 C 199.734 71.188, 200.012 71.133, 200.530 69.782 C 201.058 68.406, 201.592 68.312, 203.621 69.237 C 207.263 70.897, 209.616 67.880, 209.115 62.191 C 208.915 59.916, 207 62.007, 207 64.500 C 207 67.239, 205.838 68.259, 203.668 67.426 C 201.364 66.542, 200.664 64.230, 200.057 55.500 L 199.500 47.500 198.731 56.420 M 0.328 89.500 C 0.333 93.350, 0.513 94.802, 0.730 92.728 C 0.946 90.653, 0.943 87.503, 0.722 85.728 C 0.501 83.952, 0.324 85.650, 0.328 89.500 M 148 91 C 146.900 92.100, 146 93.646, 146 94.437 C 146 95.327, 144.763 95.993, 142.750 96.187 L 139.500 96.500 139.500 106.500 L 139.500 116.500 152.361 116.781 C 160.989 116.969, 165.678 116.682, 166.611 115.908 C 167.569 115.113, 168 112.445, 168 107.312 C 168 99.324, 166.909 96, 164.286 96 C 163.382 96, 161.199 94.425, 159.436 92.500 C 157.673 90.575, 155.616 89.014, 154.865 89.030 C 154.059 89.048, 154.319 89.530, 155.500 90.208 C 159.334 92.407, 161.195 96, 158.500 96 C 157.675 96, 157 95.334, 157 94.519 C 157 92.779, 152.270 91.330, 150.938 92.662 C 150.385 93.215, 151.066 93.562, 152.664 93.539 C 154.116 93.517, 155.489 94.034, 155.715 94.687 C 155.997 95.503, 154.698 95.828, 151.562 95.726 C 148.917 95.639, 147 95.101, 147 94.443 C 147 93.152, 149.769 90.530, 152 89.709 C 153.187 89.273, 153.135 89.141, 151.750 89.079 C 150.787 89.036, 149.100 89.900, 148 91 M 116.356 91.233 C 116.050 91.728, 116.070 92.403, 116.400 92.733 C 116.730 93.063, 117 92.822, 117 92.198 C 117 91.574, 117.675 91.322, 118.500 91.638 C 119.325 91.955, 120 91.791, 120 91.274 C 120 90.074, 117.092 90.042, 116.356 91.233 M 183.755 91.846 C 181.695 92.756, 180.008 93.816, 180.005 94.202 C 179.997 95.333, 188.684 100.982, 189.373 100.294 C 189.718 99.949, 190 97.492, 190 94.833 C 190 89.453, 189.603 89.263, 183.755 91.846 M 184.500 93.114 L 181.500 95.081 184.250 94.432 C 186.494 93.903, 187.003 94.125, 187.015 95.642 C 187.028 97.207, 187.183 97.264, 188 96 C 189.151 94.219, 189.316 90.969, 188.250 91.073 C 187.838 91.113, 186.150 92.032, 184.500 93.114 M 146 101.047 C 148.475 103.226, 151.273 105.258, 152.217 105.561 C 153.290 105.907, 156.011 104.546, 159.467 101.937 C 162.510 99.639, 165 97.589, 165 97.380 C 165 97.171, 159.713 97.019, 153.250 97.043 L 141.500 97.085 146 101.047 M 0.300 104 C 0.300 107.025, 0.487 108.263, 0.716 106.750 C 0.945 105.237, 0.945 102.763, 0.716 101.250 C 0.487 99.737, 0.300 100.975, 0.300 104 M 140 107.141 L 140 115.283 144.857 110.891 L 149.713 106.500 145.607 102.780 C 143.348 100.734, 141.162 99.046, 140.750 99.030 C 140.338 99.013, 140 102.664, 140 107.141 M 161.388 102.087 C 159.249 103.784, 157.306 105.366, 157.068 105.602 C 156.545 106.121, 162.899 112.836, 165 113.983 C 166.276 114.680, 166.500 113.622, 166.500 106.901 C 166.500 102.556, 166.224 99, 165.888 99 C 165.551 99, 163.526 100.389, 161.388 102.087 M 145.881 111.621 L 141.584 116 153.433 116 L 165.282 116 160.464 111.759 C 153.971 106.044, 151.379 106.020, 145.881 111.621 M 192.500 114 C 192.160 114.550, 192.160 115.450, 192.500 116 C 193.331 117.344, 196.713 117.273, 197.566 115.893 C 198.022 115.155, 197.570 115.002, 196.209 115.434 C 195.087 115.790, 193.882 115.618, 193.532 115.052 C 193.163 114.455, 193.506 114.257, 194.347 114.580 C 195.145 114.886, 196.095 114.656, 196.458 114.068 C 196.842 113.447, 196.282 113, 195.118 113 C 194.018 113, 192.840 113.450, 192.500 114 M 109.268 116.025 C 107.444 116.758, 107.194 117.341, 107.898 119.211 C 108.603 121.082, 109.375 121.440, 112.130 121.169 C 116.468 120.742, 117.456 119.720, 116.057 117.107 C 114.861 114.872, 112.908 114.560, 109.268 116.025 M 113.446 117.087 C 113.077 117.685, 111.924 117.952, 110.886 117.680 C 109.847 117.409, 109.217 117.543, 109.486 117.978 C 109.755 118.413, 111.320 118.967, 112.964 119.208 C 115.157 119.530, 115.695 119.337, 114.984 118.481 C 114.453 117.840, 114.313 117.020, 114.675 116.658 C 115.037 116.296, 115.060 116, 114.726 116 C 114.391 116, 113.816 116.489, 113.446 117.087 M 114.093 150.827 C 113.492 151.950, 113.036 153.686, 113.079 154.684 C 113.139 156.073, 113.284 156.147, 113.694 155 C 113.989 154.175, 114.942 152.936, 115.811 152.246 C 116.964 151.332, 117.094 150.694, 116.289 149.889 C 115.484 149.084, 114.889 149.338, 114.093 150.827 M 119.250 149.650 C 116.290 150.873, 118.494 151.488, 125.250 151.322 C 129.237 151.224, 134.188 151.112, 136.250 151.072 C 138.313 151.032, 139.996 150.662, 139.990 150.250 C 139.979 149.400, 121.172 148.856, 119.250 149.650 M 180.269 149.693 C 181.242 149.947, 182.592 149.930, 183.269 149.656 C 183.946 149.382, 183.150 149.175, 181.500 149.195 C 179.850 149.215, 179.296 149.439, 180.269 149.693 M 185.798 150.684 C 185.539 151.683, 186.129 153.340, 187.108 154.366 C 188.836 156.177, 188.880 156.154, 188.605 153.577 C 188.233 150.085, 186.433 148.230, 185.798 150.684 M 197.690 150.238 C 196.188 151.336, 196.590 151.467, 200.492 151.157 C 203.174 150.944, 205.664 151.306, 206.547 152.039 C 207.791 153.071, 207.939 153.004, 207.416 151.641 C 207.069 150.739, 205.746 150, 204.475 150 C 203.204 150, 201.551 149.765, 200.803 149.478 C 200.055 149.191, 198.654 149.533, 197.690 150.238" stroke="none" fill="#f0da12" fill-rule="evenodd"/></svg>